<svg width="151" height="136" viewBox="0 0 151 136" fill="none" xmlns="http://www.w3.org/2000/svg">
<path d="M101.668 4.44836C104.843 0.0696911 110.841 -1.05594 115.324 1.88977C119.576 4.68473 123.699 8.01109 127.561 11.7404C127.868 11.9028 128.286 12.246 128.774 12.7081C129.289 13.1956 129.904 13.8362 130.587 14.59C131.955 16.0986 133.604 18.0707 135.282 20.1993C138.629 24.4467 142.107 29.3419 143.689 32.4435L144.184 33.3185C146.631 37.7009 148.667 42.2043 150.215 46.6984C151.625 50.7884 150.163 55.1524 146.848 57.6818C146.075 58.2719 145.201 58.7612 144.24 59.1251L124.424 66.6271C119.473 68.5018 114.281 69.6352 108.994 69.9952L94.7612 70.964C94.3356 73.3142 93.067 75.5229 91.0112 77.0919L80.4302 85.1661C78.3736 86.7354 75.8931 87.3876 73.4897 87.1964L68.9224 100.574C67.2248 105.545 64.7959 110.228 61.7046 114.49L49.3325 131.552C48.732 132.379 48.0302 133.091 47.2573 133.681C43.9434 136.21 39.3117 136.499 35.6772 134.11C31.4148 131.309 27.2833 127.974 23.4136 124.234L23.4048 124.227C16.6232 117.012 12.3716 111.553 9.11279 106.259C5.8548 100.966 3.59359 95.846 0.791504 89.3195L0.785645 89.3019C-0.952723 84.2559 1.67711 78.8 6.76123 76.8751L26.5776 69.3722C31.5282 67.4979 36.7198 66.3647 42.0073 66.005L56.2388 65.0353C56.6648 62.6853 57.9341 60.4772 59.9897 58.9083L70.5708 50.8341C72.6274 49.2648 75.1074 48.6123 77.5103 48.8029L82.0786 35.4269C83.7762 30.4555 86.2051 25.7727 89.2964 21.5099L101.668 4.44836ZM42.4712 72.6896C37.8514 73.0046 33.3162 73.9945 28.9907 75.632L9.17432 83.1339C7.52355 83.7592 6.64227 85.5636 7.18506 87.1388C9.93106 95.1067 14.3555 103.139 19.9819 110.364C25.6086 117.59 32.3294 123.871 39.4155 128.528C40.8206 129.452 42.8105 129.062 43.8403 127.643L56.2124 110.581C58.9128 106.857 61.034 102.768 62.5171 98.4259L67.2954 84.4327C67.1804 84.3223 67.0679 84.2086 66.9575 84.0919L52.5259 102.157L52.5269 102.158C52.3511 102.379 52.152 102.572 51.937 102.736C50.7375 103.652 49.0211 103.681 47.7788 102.709C46.3133 101.562 46.0627 99.4531 47.2231 98.0011L62.6665 78.6671L61.814 77.5714L38.9917 87.4396C37.2821 88.1781 35.2894 87.406 34.5415 85.7101C33.7929 84.0123 34.5784 82.0376 36.2876 81.299L57.605 72.0822C57.5196 71.9476 57.4381 71.8115 57.3599 71.674L42.4712 72.6896ZM79.3257 56.7335C78.2158 55.3081 76.1391 55.0419 74.6978 56.1417L64.1167 64.2159C62.6768 65.3148 62.4091 67.3673 63.5181 68.7911L71.6743 79.2657C72.7845 80.6915 74.8622 80.9582 76.3032 79.8585L86.8843 71.7833C88.3239 70.6849 88.5916 68.6332 87.4829 67.2091L79.3257 56.7335ZM111.585 7.47278C110.181 6.54935 108.19 6.93866 107.162 8.35754L94.7896 25.42C92.0892 29.1439 89.9676 33.2328 88.4849 37.5743V37.5753L83.7056 51.5675C83.8203 51.6778 83.9322 51.7917 84.0425 51.9083L98.4751 33.8419C99.6323 32.391 101.758 32.1462 103.222 33.2921C104.688 34.4393 104.938 36.5472 103.778 37.9991L88.3335 57.3331L89.186 58.4279L112.009 48.5616C113.719 47.8232 115.711 48.5944 116.459 50.2902C117.094 51.7299 116.627 53.3696 115.427 54.2853L115.426 54.2843C115.211 54.4491 114.973 54.5903 114.713 54.7023L93.395 63.9181C93.4802 64.0525 93.562 64.1881 93.6401 64.3253L108.53 63.3116C113.149 62.9963 117.685 62.0061 122.01 60.3683L141.827 52.8663C143.477 52.2411 144.358 50.4376 143.816 48.8624C141.07 40.8943 136.645 32.8612 131.019 25.6359C125.393 18.4102 118.672 12.1295 111.585 7.47278Z" fill="#D7DAE0" stroke="#D7DAE0" stroke-width="0.5"/>
</svg>
